<?xml version="1.0" encoding="UTF-8"?>
<svg id="Layer_2" data-name="Layer 2" xmlns="http://www.w3.org/2000/svg" viewBox="0 0 455.98 166.21">
  <defs>
    <style>
      .cls-1 {
        fill: #044350;
        stroke-width: 0px;
      }
    </style>
  </defs>
  <g id="Layer_1-2" data-name="Layer 1">
    <g>
      <g>
        <g>
          <path class="cls-1" d="M9.89,1h20.47c13.83,0,18.93,8.03,18.93,17.77,0,13.75-10.28,21.79-25.26,21.79h-4.71l-2.94,16.53H0L9.89,1ZM32.91,19.7c0-3.4-1.93-5.72-5.25-5.72h-3.71l-2.32,13.37h3.63c4.79,0,7.65-3.32,7.65-7.65Z"/>
          <path class="cls-1" d="M66.75,1h20.78l6.88,56.09h-16.15l-1.08-10.51h-15.92l-4.87,10.51h-16.77L66.75,1ZM76.18,33.76l-1.47-17.69-7.88,17.69h9.35Z"/>
          <path class="cls-1" d="M108.01,1h13.21l15.07,30.9,5.41-30.9h15.68l-9.89,56.09h-13.37l-14.99-30.9-5.41,30.9h-15.61L108.01,1Z"/>
          <path class="cls-1" d="M165.1,1h16.46l-9.89,56.09h-16.46L165.1,1Z"/>
          <path class="cls-1" d="M189.29,1h14.29l8.96,24.26L230.16,1h14.29l-9.89,56.09h-15.84l5.41-30.29-15.61,21.01-7.96-20.78-5.33,30.05h-15.84L189.29,1Z"/>
          <path class="cls-1" d="M245.3,32.14c0-8.42,3.24-16.61,9.04-22.79,5.56-5.87,13.37-9.35,22.02-9.35,14.29,0,26.89,9.19,26.89,25.96,0,8.42-3.17,16.61-9.04,22.79-5.56,5.87-13.29,9.35-22.02,9.35-14.22,0-26.89-9.19-26.89-25.96ZM282.38,38.48c2.32-2.86,3.86-6.88,3.86-11.43,0-7.65-4.4-12.13-10.51-12.13-4.25,0-7.57,2.24-9.5,4.71-2.39,2.86-3.86,6.88-3.86,11.43,0,7.65,4.33,12.13,10.43,12.13,4.33,0,7.57-2.24,9.58-4.71Z"/>
        </g>
        <g>
          <path class="cls-1" d="M0,65.27h23.11l4.14,53.12,22.16-53.12h24.49l-36.47,76.98H9.22L0,65.27Z"/>
          <path class="cls-1" d="M91.29,65.27h28.52l9.44,76.98h-22.16l-1.48-14.42h-21.84l-6.68,14.42h-23.01l37.22-76.98ZM104.23,110.22l-2.01-24.28-10.81,24.28h12.83Z"/>
          <path class="cls-1" d="M147.91,65.27h22.58l-10.07,57.36h26.19l-3.5,19.62h-48.77l13.57-76.98Z"/>
          <path class="cls-1" d="M202.73,84.67h-19.19l3.39-19.4h60.44l-3.39,19.4h-18.77l-10.28,57.57h-22.37l10.18-57.57Z"/>
          <path class="cls-1" d="M265.29,65.27h28.52l9.44,76.98h-22.16l-1.48-14.42h-21.84l-6.68,14.42h-23.01l37.22-76.98ZM278.22,110.22l-2.01-24.28-10.81,24.28h12.83Z"/>
        </g>
        <g>
          <path class="cls-1" d="M133.52,149.7h4.76l-1.07,6.05h4.69l1.07-6.05h4.74l-2.86,16.22h-4.74l1.07-6.14h-4.69l-1.07,6.14h-4.76l2.86-16.22Z"/>
          <path class="cls-1" d="M147.95,158.7c0-2.43.94-4.8,2.61-6.59,1.61-1.7,3.86-2.7,6.37-2.7,4.13,0,7.77,2.66,7.77,7.5,0,2.43-.92,4.8-2.61,6.59-1.61,1.7-3.84,2.7-6.37,2.7-4.11,0-7.77-2.66-7.77-7.5ZM158.67,160.53c.67-.83,1.12-1.99,1.12-3.31,0-2.21-1.27-3.51-3.04-3.51-1.23,0-2.19.65-2.75,1.36-.69.83-1.12,1.99-1.12,3.31,0,2.21,1.25,3.51,3.02,3.51,1.25,0,2.19-.65,2.77-1.36Z"/>
          <path class="cls-1" d="M167.81,149.7h4.13l2.59,7.01,5.09-7.01h4.13l-2.86,16.22h-4.58l1.56-8.76-4.51,6.08-2.3-6.01-1.54,8.69h-4.58l2.86-16.22Z"/>
          <path class="cls-1" d="M186.01,149.7h10.23l-.74,4.09h-5.7l-.4,2.21h4.07l-.6,3.48h-4.07l-.42,2.35h5.7l-.71,4.09h-10.21l2.86-16.22Z"/>
          <path class="cls-1" d="M201.91,149.7h5.85c3.8,0,5.18,2.12,5.18,4.38,0,1.81-.94,3.04-2.39,3.8.92.71,1.47,1.74,1.47,3.06,0,3.08-2.93,4.98-6.77,4.98h-6.21l2.86-16.22ZM207.54,160.64c0-.78-.47-1.34-1.36-1.34h-1.41l-.54,3.04h1.43c1.12,0,1.88-.65,1.88-1.7ZM208.32,154.55c0-.71-.45-1.3-1.3-1.3h-1.18l-.54,2.99h1.18c1.12,0,1.83-.69,1.83-1.7Z"/>
          <path class="cls-1" d="M215.89,149.7h6.16c3.89,0,5.25,2.41,5.25,4.69,0,2.57-1.72,4.49-4.07,5.36l2.66,6.16h-4.8l-2.3-5.67h-.2l-1.01,5.67h-4.56l2.86-16.22ZM222.6,154.84c0-.87-.56-1.43-1.38-1.43h-1.41l-.58,3.24h1.41c1.07,0,1.97-.71,1.97-1.81Z"/>
          <path class="cls-1" d="M230.08,149.7h10.23l-.74,4.09h-5.7l-.4,2.21h4.07l-.6,3.48h-4.07l-.42,2.35h5.7l-.71,4.09h-10.21l2.86-16.22Z"/>
          <path class="cls-1" d="M241.27,149.7h4.56l-.07,10.63,4.49-10.63h3.19l.71,10.94,3.84-10.94h4.69l-6.34,16.22h-5.27l-.63-8.06-3.53,8.06h-5.14l-.51-16.22Z"/>
          <path class="cls-1" d="M263.96,149.7h10.23l-.74,4.09h-5.7l-.4,2.21h4.07l-.6,3.48h-4.07l-.42,2.35h5.7l-.71,4.09h-10.21l2.86-16.22Z"/>
          <path class="cls-1" d="M276.13,149.7h6.16c3.89,0,5.25,2.41,5.25,4.69,0,2.57-1.72,4.49-4.07,5.36l2.66,6.16h-4.8l-2.3-5.67h-.2l-1.01,5.67h-4.56l2.86-16.22ZM282.83,154.84c0-.87-.56-1.43-1.38-1.43h-1.41l-.58,3.24h1.41c1.07,0,1.97-.71,1.97-1.81Z"/>
          <path class="cls-1" d="M291.01,160.42l-3.04-10.72h4.71l1.47,6.48,3.93-6.48h5.09l-7.5,11.15-.89,5.07h-4.71l.94-5.49Z"/>
        </g>
      </g>
      <polygon class="cls-1" points=".71 155.75 133.36 155.75 132.65 159.77 0 159.77 .71 155.75"/>
      <g>
        <path class="cls-1" d="M425.26,109.52c2.25-4.2,3.84-8.75,4.67-13.5l3.29-18.78c1.2-6.82.8-13.93-1.14-20.58-1.94-6.65-5.44-12.86-10.11-17.96L385.46,1l-36.48,37.65-.04.04c-4.68,5.1-8.17,11.31-10.11,17.96-1.94,6.64-2.33,13.76-1.14,20.58l3.29,18.78c.86,4.88,2.51,9.56,4.86,13.85-4.83,4.63-7.73,10.79-8.2,17.5-.5,7.16,1.81,14.09,6.52,19.52l2.42,2.79,1.11-3.53c.04-.13,4.16-12.86,15.07-18.9,1.37.8,2.78,1.51,4.23,2.16l3.32,18.19h30.28l3.32-18.19c1.54-.69,3.04-1.46,4.5-2.32,11.13,5.97,15.32,18.93,15.36,19.06l1.1,3.54,2.43-2.8c4.71-5.43,7.03-12.36,6.52-19.52-.48-6.88-3.53-13.19-8.58-17.85ZM425.86,95.31c-.29,1.66-.69,3.29-1.18,4.89l-4.86-5.5c1.91-4.81,2.07-9.3,1.7-14.33-.43,4.63-1.35,9.42-3.65,13.44l-.23.12c-.08-.37-.17-.75-.28-1.12-1.01-3.69-2.83-7.03-5.32-9.83,1.84-3.42,2.82-7.16,2.91-11.01l6.8-3.69,5.15,5.82c.81.91,1.53,1.88,2.17,2.89l-3.21,18.31ZM401.87,57.56c-.12,1.84-.31,3.66-.63,5.46-.53,3.12-1.53,6.26-3.15,8.98-2.04-4.1-6.01-7.06-10.72-7.71-.09-.22-.19-.43-.29-.65-.21-.44-.43-.87-.67-1.3,2.1-3.51,5.07-6.37,8.71-8.34l7.07-3.84,5.33,6.03c3.25,3.67,5.21,8.19,5.66,13.07.4,4.33-.42,8.6-2.37,12.44-.59-.58-1.21-1.13-1.87-1.65l-7.34-5.83-2.24,1.78c-.1-.63-.25-1.25-.43-1.85.95-1.74,1.65-3.61,2.1-5.52.88-3.64,1-7.37.82-11.07ZM397.08,78.26c0,6.41-5.21,11.62-11.62,11.62s-11.62-5.21-11.62-11.62,5.21-11.62,11.62-11.62,11.62,5.21,11.62,11.62ZM402.57,48.07l-8.24,4.47c-3.07,1.66-5.69,3.92-7.77,6.63l-1.1-14.79-1.1,14.79c-2.08-2.71-4.71-4.97-7.77-6.63l-8.24-4.47-1.85,2.09c.17-1.22.42-2.44.75-3.65,1.66-6.06,5.13-11.34,10.05-15.25l8.16-6.49,8.16,6.49c4.92,3.91,8.4,9.19,10.05,15.25.33,1.21.58,2.43.75,3.65l-1.85-2.09ZM368.71,50.17l7.07,3.84c4.24,2.3,7.59,5.81,9.69,10.15,0,0-.01,0-.02,0-5.64,0-10.52,3.33-12.77,8.13-1.72-2.79-2.77-6.03-3.32-9.27-.32-1.8-.51-3.62-.63-5.46-.32,5.73.27,11.93,3.13,16.97-.14.5-.25,1.01-.33,1.53l-2.3-1.83-7.34,5.83c-.64.51-1.24,1.05-1.82,1.61-1.93-3.83-2.74-8.08-2.35-12.4.45-4.88,2.41-9.4,5.66-13.07l5.33-6.03ZM362.93,81.36l6.3-5.01,2.13,1.69c0,.07,0,.14,0,.22,0,7.03,5.17,12.88,11.91,13.93.71.11,1.45.17,2.19.17.66,0,1.31-.05,1.95-.14,6.86-.95,12.15-6.85,12.15-13.97,0-.09,0-.18,0-.27l2.06-1.64,6.3,5.01c3.84,3.05,6.55,7.16,7.84,11.89.14.5.25,1,.36,1.51l-5.54,3c-3.65,1.98-6.69,4.87-8.87,8.35l-.31-13.82-1.95,15.3c-1.53-2.13-3.35-4.04-5.43-5.69l-6.61-5.26-1.96-1.56-2.13,1.69-6.45,5.13c-2.21,1.76-4.13,3.81-5.72,6.11l-2-15.72-.29,13.02c-2.13-3.13-4.99-5.73-8.35-7.55l-5.74-3.12c.1-.47.2-.93.33-1.4,1.29-4.73,4-8.84,7.84-11.89ZM428.12,57.82c1.59,5.44,2.03,11.23,1.31,16.86-.42-.56-.86-1.11-1.32-1.64l-5.18-5.85c1.58-4.47,1.7-8.71,1.36-13.43-.42,4.55-1.32,9.25-3.53,13.23l-5.83,3.17c-.02-.35-.04-.69-.07-1.04-.46-4.95-2.36-9.55-5.51-13.37,1.49-3.31,3.74-6.21,6.63-8.51l4.69-3.73c3.39,4.22,5.95,9.12,7.47,14.31ZM418.95,41.52c.22.24.43.48.64.72l-4.66,3.7c-.34.27-.67.55-.99.83-1.33-4.54-3.7-8.04-6.73-11.66,2.42,4.12,4.52,8.68,4.93,13.43-1.61,1.75-2.95,3.7-3.99,5.83l-1.84-2.07c-.13-2.08-.48-4.16-1.04-6.21-1.58-5.77-4.72-10.87-9.13-14.84.23-.68.49-1.36.78-2.03l3.16-7.17,18.87,19.48ZM385.46,6.95l13.37,13.8-3.44,7.79c-.22.51-.43,1.02-.62,1.54-.04-.03-.08-.07-.13-.11l-9.19-7.3-9.19,7.3c-.32.25-.63.51-.94.78-.25-.75-.53-1.48-.85-2.21l-3.11-7.05,14.08-14.54ZM351.97,41.52l18.15-18.74,2.84,6.43c.4.91.74,1.84,1.02,2.78-3.99,3.86-6.85,8.67-8.33,14.09-.56,2.05-.91,4.13-1.04,6.21l-2.18,2.47c-1.1-2.35-2.56-4.5-4.34-6.4.44-4.69,2.52-9.19,4.91-13.26-3,3.59-5.36,7.06-6.69,11.54-.28-.24-.56-.48-.85-.71l-4.34-3.45c.28-.33.56-.65.85-.97ZM342.8,57.82c1.48-5.09,3.97-9.89,7.26-14.05l4.36,3.47c3.01,2.4,5.33,5.45,6.81,8.94-2.94,3.73-4.73,8.17-5.17,12.94-.04.41-.06.83-.08,1.24l-6.01-3.26c-2.25-4-3.17-8.75-3.59-13.34-.34,4.68-.22,8.89,1.32,13.32l-5.28,5.96c-.35.39-.68.8-1,1.21-.65-5.49-.18-11.13,1.36-16.43ZM345.06,95.31l-3.29-18.76c.56-.85,1.19-1.66,1.87-2.44l5.15-5.82,6.83,3.71c.12.06.23.13.35.2.12,3.75,1.09,7.4,2.88,10.74-2.52,2.82-4.35,6.17-5.37,9.88-.09.32-.17.64-.24.97-2.29-4.02-3.21-8.8-3.63-13.41-.37,5.02-.21,9.5,1.69,14.3l-4.96,5.6s-.04.05-.06.07c-.51-1.64-.92-3.32-1.22-5.03ZM345.18,141.33c-2.55-4.06-3.75-8.8-3.41-13.67.38-5.37,2.6-10.32,6.29-14.15,2.33,3.45,5.14,6.58,8.36,9.29.81.68,1.65,1.33,2.5,1.95-7.5,4.86-11.75,12.22-13.74,16.59ZM397.15,143.46h-23.38l-2.25-12.31c.97.31,1.94.6,2.93.84l1.93,9.89,1.78-9.12c1.85.3,3.73.49,5.62.56l1.67,8.55,1.67-8.55c1.89-.07,3.77-.26,5.62-.57l1.78,9.12,1.93-9.89c.99-.25,1.96-.53,2.93-.84l-2.25,12.31ZM410.29,120.71l-.76.67h0c-.1.08-.2.17-.3.25,0,0,0,0,0,0-4.08,2.9-8.64,5.02-13.45,6.27-2.96.77-6.01,1.21-9.1,1.31l-.1-1.31-1.12-15.07-1.12,15.07-.1,1.31c-3.09-.09-6.14-.53-9.1-1.31-4.81-1.25-9.37-3.37-13.45-6.27,0,0,0,0,0,0-4.24-3.31-6.41-8.57-7.3-13.78-.32-1.8-.51-3.62-.63-5.46-.26,4.56.07,9.4,1.64,13.73-3.66-3.95-6.51-8.59-8.39-13.62.25-.32.51-.63.78-.94l5.06-5.72,6.72,3.64c4.51,2.45,8.04,6.43,9.93,11.19l.9,2.36,1.02-1.8c1.7-3.01,3.94-5.63,6.65-7.79l7.36-5.85,7.36,5.85c2.77,2.21,5.05,4.89,6.76,7.99l1.03,1.86.85-2.31c1.87-4.91,5.44-8.99,10.05-11.5l6.72-3.64,5.06,5.72c.23.26.46.53.67.8-1.87,5.08-4.73,9.75-8.41,13.73.32-.86.58-1.74.79-2.63.88-3.64,1-7.37.82-11.07-.12,1.84-.31,3.66-.63,5.46-.05.31-.11.62-.17.93-.02.12-.05.23-.07.35-.04.19-.08.39-.13.58-.03.15-.07.29-.11.44-.04.16-.08.32-.12.48-.04.17-.09.33-.14.5-.04.14-.08.27-.12.41-.05.18-.11.36-.17.54-.04.11-.07.23-.11.34-.07.2-.13.39-.21.58-.03.09-.07.19-.1.28-.08.21-.16.42-.25.63-.03.07-.06.14-.09.2-.1.23-.19.46-.3.68-.02.03-.03.07-.05.1-1.01,2.18-2.36,4.18-4.11,5.82ZM426.31,141.33c-2.02-4.42-6.35-11.92-14.04-16.78.76-.56,1.5-1.14,2.23-1.75,3.33-2.8,6.22-6.05,8.59-9.63,3.9,3.88,6.24,8.97,6.63,14.5.34,4.87-.86,9.61-3.41,13.67Z"/>
        <path class="cls-1" d="M389.47,150.13c-.27,4.67-4.02,8.38-4.02,8.38,0,0-3.75-3.71-4.02-8.38h-8.99l4.33,10.23c.46,1.08,1.98,1.08,2.44,0l1.44-3.39,3.57,8.43c.46,1.08,1.98,1.08,2.44,0l3.57-8.43,1.44,3.39c.46,1.08,1.98,1.08,2.44,0l4.33-10.23h-8.99Z"/>
        <path class="cls-1" d="M447.47,10.15c-.3-1.32-3.6-1.79-8.31-1.41-1.68-2.61-4.62-4.35-7.95-4.35-4.82,0-8.8,3.62-9.38,8.29-4.41,1.69-7.18,3.54-6.88,4.86.3,1.32,3.6,1.79,8.31,1.41,1.68,2.61,4.62,4.35,7.95,4.35,4.82,0,8.8-3.62,9.38-8.29,4.41-1.69,7.18-3.54,6.88-4.86ZM418.11,16.49c-.2-.86,1.22-2,3.65-3.12,0,.16-.01.32-.01.48,0,1.38.3,2.7.84,3.88-2.58.01-4.28-.4-4.47-1.24ZM431.21,6.04c2.44,0,4.62,1.13,6.05,2.89-2.12.25-4.46.65-6.9,1.21-2.44.55-4.72,1.2-6.74,1.89.82-3.43,3.91-5.98,7.59-5.98ZM431.21,21.65c-2.44,0-4.62-1.13-6.05-2.89,2.12-.25,4.46-.65,6.9-1.21,2.44-.55,4.72-1.2,6.74-1.89-.82,3.43-3.91,5.98-7.59,5.98ZM438.99,14.37c-2,.78-4.44,1.53-7.11,2.13-2.73.62-5.31,1-7.48,1.15-.63-1.13-1-2.43-1-3.81,0-.41.03-.82.09-1.21,1.98-.77,4.4-1.51,7.03-2.1,2.57-.58,5-.96,7.09-1.12.88,1.26,1.39,2.79,1.39,4.44,0,.18,0,.35-.02.52ZM440.66,13.66c-.03-1.57-.45-3.05-1.16-4.35,2.76-.05,4.6.36,4.8,1.24.19.86-1.22,1.99-3.64,3.11Z"/>
        <path class="cls-1" d="M410.81,7.18l.66,3.9.66-3.9c.04-.24.23-.43.47-.47l3.9-.66-3.9-.66c-.24-.04-.43-.23-.47-.47l-.66-3.9-.66,3.9c-.04.24-.23.43-.47.47l-3.9.66,3.9.66c.24.04.43.23.47.47Z"/>
        <path class="cls-1" d="M452.08,22.64c-.24-.04-.43-.23-.47-.47l-.66-3.9-.66,3.9c-.04.24-.23.43-.47.47l-3.9.66,3.9.66c.24.04.43.23.47.47l.66,3.9.66-3.9c.04-.24.23-.43.47-.47l3.9-.66-3.9-.66Z"/>
        <path class="cls-1" d="M382.22,78.66l3.47-10.07h4.24c-1.36-.63-2.87-.98-4.46-.98-5.89,0-10.66,4.77-10.66,10.66,0,4.21,2.44,7.85,5.98,9.58l3.96-9.19h-2.54Z"/>
        <path class="cls-1" d="M390.08,68.65l-3.98,9.22h3.27l-8.54,9.98c1.4.68,2.98,1.06,4.64,1.06,5.89,0,10.66-4.77,10.66-10.66,0-4.24-2.47-7.9-6.05-9.61Z"/>
      </g>
    </g>
  </g>
</svg>