<?xml version="1.0" encoding="UTF-8"?>
<svg id="Layer_2" data-name="Layer 2" xmlns="http://www.w3.org/2000/svg" viewBox="0 0 1475.57 2264.14">
  <defs>
    <style>
      .cls-1 {
        opacity: .05;
      }

      .cls-2 {
        fill: #044350;
        stroke-width: 0px;
      }
    </style>
  </defs>
  <g id="Layer_1-2" data-name="Layer 1">
    <g class="cls-1">
      <path class="cls-2" d="M1343.85,1652.49c34.22-63.92,58.43-133.28,71.12-205.6l50.17-286.01c18.21-103.83,12.23-212.19-17.31-313.38-29.53-101.19-82.78-195.76-153.99-273.48L737.73,0,182.21,573.38l-.6.64c-71.2,77.73-124.45,172.3-153.99,273.48-29.54,101.19-35.52,209.55-17.31,313.38l50.17,286.01c13.04,74.33,38.22,145.55,73.96,210.93-73.52,70.45-117.66,164.3-124.85,266.47-7.68,109.02,27.61,214.57,99.36,297.2l36.93,42.47,16.91-53.7c.63-1.99,63.3-195.81,229.46-287.75,20.88,12.12,42.38,23.07,64.35,32.91l50.58,276.92h461.08l50.59-276.98c23.44-10.5,46.35-22.24,68.53-35.33,169.54,90.89,233.32,288.21,233.94,290.19l16.82,53.92,37.03-42.64c71.75-82.63,107.04-188.18,99.36-297.2-7.38-104.8-53.72-200.78-130.69-271.8ZM1352.93,1436c-4.44,25.29-10.45,50.17-17.91,74.53l-74.07-83.68c29.03-73.21,31.49-141.6,25.89-218.28-6.52,70.47-20.61,143.4-55.58,204.66l-3.51,1.9c-1.28-5.69-2.65-11.38-4.2-17.04-15.35-56.19-43.03-107.01-81.07-149.75,27.94-52.02,43-109.06,44.32-167.67l103.5-56.16,78.47,88.65c12.3,13.9,23.32,28.64,33.05,44.07l-48.9,278.76ZM987.72,861.2c-1.81,27.94-4.79,55.77-9.65,83.14-8.1,47.56-23.3,95.26-47.98,136.74-31.07-62.38-91.57-107.58-163.22-117.35-1.44-3.29-2.87-6.57-4.41-9.83-3.18-6.72-6.59-13.28-10.13-19.76,31.97-53.42,77.26-96.96,132.64-127.01l107.71-58.44,81.22,91.76c49.48,55.9,79.27,124.74,86.14,199.07,6.1,65.95-6.38,130.94-36.08,189.47-9.04-8.79-18.5-17.22-28.49-25.16l-111.71-88.81-34.04,27.06c-1.56-9.64-3.75-19.07-6.55-28.24,14.43-26.48,25.11-54.98,31.99-84.1,13.35-55.36,15.2-112.18,12.56-168.54ZM914.72,1176.49c0,97.59-79.4,176.99-176.99,176.99s-176.99-79.4-176.99-176.99,79.4-176.99,176.99-176.99,176.99,79.4,176.99,176.99ZM998.3,716.78l-125.43,68.06c-46.69,25.34-86.69,59.64-118.34,100.97l-16.8-225.23-16.8,225.23c-31.65-41.33-71.65-75.63-118.34-100.97l-125.43-68.06-28.23,31.89c2.65-18.61,6.43-37.17,11.46-55.57,25.23-92.35,78.18-172.65,153.11-232.22l124.23-98.76,124.23,98.76c74.94,59.57,127.88,139.87,153.11,232.22,5.03,18.4,8.81,36.95,11.46,55.56l-28.23-31.89ZM482.78,748.69l107.71,58.44c64.62,35.07,115.55,88.49,147.53,154.58-.1,0-.2,0-.29,0-85.89,0-160.14,50.7-194.47,123.73-26.24-42.48-42.17-91.89-50.55-141.1-4.86-27.37-7.84-55.19-9.65-83.14-4.9,87.32,4.18,181.65,47.6,258.36-2.09,7.61-3.81,15.36-5.06,23.28l-34.98-27.81-111.71,88.81c-9.73,7.73-18.95,15.93-27.77,24.47-29.44-58.36-41.79-123.09-35.72-188.78,6.87-74.34,36.66-143.17,86.14-199.07l81.22-91.76ZM394.7,1223.69l95.92-76.26,32.41,25.76c-.02,1.1-.08,2.2-.08,3.3,0,107.08,78.77,196.09,181.4,212.18,10.89,1.71,22.04,2.61,33.39,2.61,10.1,0,20.02-.75,29.74-2.11,104.4-14.53,185.05-104.34,185.05-212.68,0-1.39-.08-2.76-.11-4.14l31.35-24.93,95.92,76.26c58.44,46.46,99.72,109.08,119.4,181.09,2.08,7.63,3.85,15.29,5.41,22.97l-84.32,45.75c-55.54,30.14-101.92,74.09-135.06,127.11l-4.65-210.4-29.71,233.03c-23.35-32.43-50.98-61.48-82.65-86.66l-100.68-80.04-29.92-23.78-32.37,25.74-98.23,78.09c-33.7,26.79-62.85,58-87.12,93.02l-30.52-239.4-4.38,198.27c-32.47-47.59-76.01-87.21-127.18-114.98l-87.47-47.46c1.48-7.11,3.12-14.2,5.05-21.26,19.68-72.01,60.97-134.63,119.4-181.09ZM1387.37,865.15c24.19,82.89,30.94,171.06,19.93,256.75-6.34-8.56-13.04-16.91-20.18-24.98l-78.86-89.09c24.13-68.07,25.96-132.64,20.71-204.48-6.41,69.23-20.08,140.87-53.73,201.45l-88.83,48.2c-.27-5.27-.63-10.54-1.12-15.82-6.97-75.39-35.94-145.5-83.94-203.6,22.65-50.41,56.92-94.56,100.91-129.54l71.41-56.77c51.59,64.26,90.61,138.83,113.69,217.87ZM1247.7,616.9c3.29,3.59,6.5,7.25,9.7,10.92l-70.91,56.37c-5.17,4.11-10.19,8.36-15.11,12.71-20.21-69.09-56.38-122.45-102.49-177.56,36.89,62.72,68.83,132.23,75.04,204.52-24.49,26.58-44.93,56.38-60.73,88.8l-27.97-31.59c-2.05-31.7-7.3-63.36-15.84-94.62-24.03-87.93-71.91-165.46-139.08-226,3.48-10.43,7.4-20.76,11.89-30.94l48.17-109.2,287.34,296.58ZM737.73,90.53l203.58,210.13-52.33,118.63c-3.42,7.75-6.51,15.6-9.38,23.49-.66-.53-1.29-1.09-1.96-1.62l-139.91-111.23-139.91,111.23c-4.85,3.85-9.6,7.8-14.28,11.81-3.77-11.36-8.03-22.61-12.92-33.69l-47.37-107.38,214.48-221.37ZM227.76,616.9l276.44-285.33,43.21,97.96c6.12,13.88,11.26,28.03,15.5,42.37-60.75,58.75-104.3,132.08-126.84,214.57-8.54,31.26-13.79,62.91-15.84,94.62l-33.23,37.54c-16.68-35.83-38.99-68.55-66.1-97.4,6.75-71.34,38.34-139.92,74.78-201.88-45.7,54.61-81.6,107.52-101.92,175.71-4.23-3.68-8.47-7.35-12.88-10.86l-66.13-52.57c4.27-4.97,8.59-9.89,13.01-14.72ZM88.09,865.15c22.6-77.43,60.53-150.56,110.56-213.92l66.43,52.82c45.9,36.49,81.16,82.98,103.74,136.13-44.82,56.79-71.96,124.43-78.67,197.01-.58,6.31-.95,12.61-1.22,18.9l-91.54-49.67c-34.31-60.93-48.2-133.21-54.66-203.06-5.2,71.26-3.42,135.36,20.15,202.82l-80.34,90.76c-5.32,6.01-10.37,12.2-15.25,18.49-9.85-83.64-2.8-169.47,20.78-250.26ZM122.53,1436l-50.12-285.73c8.59-12.91,18.06-25.32,28.5-37.11l78.47-88.65,104.06,56.46c1.8.98,3.54,2.02,5.32,3.02,1.8,57.16,16.66,112.75,43.81,163.58-38.4,42.89-66.3,93.99-81.75,150.51-1.34,4.89-2.55,9.8-3.68,14.72-34.8-61.17-48.84-133.93-55.34-204.24-5.58,76.48-3.14,144.71,25.67,217.7l-75.48,85.27c-.31.35-.61.72-.92,1.08-7.75-25.03-13.98-50.61-18.54-76.62ZM124.35,2136.87c-38.88-61.8-57.14-134.03-51.92-208.15,5.76-81.75,39.52-157.17,95.78-215.55,35.47,52.48,78.21,100.19,127.31,141.43,12.36,10.38,25.06,20.27,38.06,29.7-114.19,74.07-178.86,186.14-209.23,252.56ZM915.74,2169.35h-356.03l-34.24-187.44c14.72,4.78,29.6,9.07,44.63,12.85l29.43,150.66,27.12-138.85c28.24,4.64,56.84,7.52,85.63,8.59l25.44,130.27,25.44-130.26c28.79-1.07,57.38-3.97,85.62-8.61l27.13,138.88,29.43-150.66c15.03-3.79,29.91-8.08,44.63-12.86l-34.24,187.45ZM1115.86,1822.85l-11.61,10.2h0c-1.55,1.28-3.03,2.62-4.62,3.86,0,0,.08.09.1.11-62.07,44.12-131.56,76.39-204.78,95.45-45.1,11.75-91.59,18.48-138.63,19.89l-1.48-19.89-17.12-229.54-17.12,229.54-1.48,19.89c-47.03-1.41-93.53-8.14-138.63-19.89-73.21-19.07-142.71-51.34-204.78-95.46.02-.03.1-.11.1-.11-64.53-50.43-97.67-130.43-111.19-209.85-4.86-27.37-7.84-55.19-9.65-83.14-3.9,69.38,1.05,143.18,25.01,209.05-55.78-60.15-99.19-130.73-127.71-207.44,3.85-4.85,7.78-9.65,11.92-14.32l77.12-87.12,102.26,55.49c68.72,37.29,122.46,97.86,151.26,170.36l13.73,35.94,15.51-27.47c25.88-45.84,59.96-85.75,101.29-118.61l112.15-89.16,112.15,89.16c42.25,33.59,76.9,74.5,102.96,121.59l15.71,28.38,12.9-35.14c28.45-74.76,82.81-136.93,153.09-175.06l102.26-55.49,77.12,87.12c3.54,4,6.94,8.09,10.27,12.22-28.45,77.35-72.02,148.53-128.13,209.14,4.84-13.15,8.88-26.56,12.08-40.11,13.35-55.36,15.2-112.18,12.56-168.54-1.81,27.94-4.79,55.77-9.65,83.14-.81,4.74-1.69,9.47-2.64,14.21-.36,1.77-.76,3.53-1.14,5.3-.62,2.94-1.24,5.88-1.93,8.81-.52,2.23-1.09,4.45-1.64,6.67-.6,2.42-1.19,4.85-1.84,7.26-.67,2.53-1.39,5.04-2.11,7.56-.59,2.06-1.17,4.12-1.79,6.17-.83,2.76-1.7,5.51-2.59,8.25-.57,1.75-1.13,3.49-1.72,5.23-1.01,2.97-2.05,5.93-3.13,8.88-.52,1.42-1.05,2.84-1.59,4.26-1.21,3.2-2.45,6.39-3.75,9.55-.43,1.04-.87,2.07-1.3,3.11-1.47,3.49-2.97,6.96-4.54,10.39-.24.52-.48,1.02-.72,1.54-15.41,33.16-35.89,63.62-62.55,88.61ZM1359.78,2136.87c-30.78-67.31-96.74-181.53-213.81-255.55,11.57-8.53,22.9-17.43,33.96-26.71,50.73-42.6,94.67-92.1,130.81-146.64,59.35,59.07,95.03,136.54,100.96,220.75,5.22,74.12-13.03,146.35-51.92,208.15Z"/>
    </g>
  </g>
</svg>