<?xml version="1.0" encoding="UTF-8" standalone="no"?>
<!-- Created with Inkscape (http://www.inkscape.org/) -->

<svg
   width="31.475842mm"
   height="43.711811mm"
   viewBox="0 0 31.475842 43.711811"
   version="1.1"
   id="svg1"
   inkscape:version="1.4 (e7c3feb1, 2024-10-09)"
   sodipodi:docname="rocket4.svg"
   xmlns:inkscape="http://www.inkscape.org/namespaces/inkscape"
   xmlns:sodipodi="http://sodipodi.sourceforge.net/DTD/sodipodi-0.dtd"
   xmlns="http://www.w3.org/2000/svg"
   xmlns:svg="http://www.w3.org/2000/svg">
  <sodipodi:namedview
     id="namedview1"
     pagecolor="#ffffff"
     bordercolor="#000000"
     borderopacity="0.25"
     inkscape:showpageshadow="2"
     inkscape:pageopacity="0.0"
     inkscape:pagecheckerboard="0"
     inkscape:deskcolor="#d1d1d1"
     inkscape:document-units="mm"
     inkscape:zoom="2.0851667"
     inkscape:cx="53.472943"
     inkscape:cy="100.47158"
     inkscape:window-width="1416"
     inkscape:window-height="794"
     inkscape:window-x="0"
     inkscape:window-y="38"
     inkscape:window-maximized="0"
     inkscape:current-layer="layer1" />
  <defs
     id="defs1" />
  <g
     inkscape:label="Layer 1"
     inkscape:groupmode="layer"
     id="layer1"
     transform="translate(-113.77083,-128.32291)">
    <g
       id="g29"
       transform="matrix(0.26458333,0,0,0.26458333,24.601966,128.05833)">
      <!-- Raketti -->
      <path
         class="cls-2"
         d="m 425.26,109.52 c 2.25,-4.2 3.84,-8.75 4.67,-13.5 l 3.29,-18.78 c 1.2,-6.82 0.8,-13.93 -1.14,-20.58 C 430.14,50.01 426.64,43.8 421.97,38.7 L 385.46,1 l -36.48,37.65 -0.04,0.04 c -4.68,5.1 -8.17,11.31 -10.11,17.96 -1.94,6.64 -2.33,13.76 -1.14,20.58 l 3.29,18.78 c 0.86,4.88 2.51,9.56 4.86,13.85 -4.83,4.63 -7.73,10.79 -8.2,17.5 -0.5,7.16 1.81,14.09 6.52,19.52 l 2.42,2.79 1.11,-3.53 c 0.04,-0.13 4.16,-12.86 15.07,-18.9 1.37,0.8 2.78,1.51 4.23,2.16 l 3.32,18.19 h 30.28 l 3.32,-18.19 c 1.54,-0.69 3.04,-1.46 4.5,-2.32 11.13,5.97 15.32,18.93 15.36,19.06 l 1.1,3.54 2.43,-2.8 c 4.71,-5.43 7.03,-12.36 6.52,-19.52 -0.48,-6.88 -3.53,-13.19 -8.58,-17.85 z m 0.6,-14.21 c -0.29,1.66 -0.69,3.29 -1.18,4.89 l -4.86,-5.5 c 1.91,-4.81 2.07,-9.3 1.7,-14.33 -0.43,4.63 -1.35,9.42 -3.65,13.44 l -0.23,0.12 c -0.08,-0.37 -0.17,-0.75 -0.28,-1.12 -1.01,-3.69 -2.83,-7.03 -5.32,-9.83 1.84,-3.42 2.82,-7.16 2.91,-11.01 l 6.8,-3.69 5.15,5.82 c 0.81,0.91 1.53,1.88 2.17,2.89 L 425.86,95.3 Z M 401.87,57.56 c -0.12,1.84 -0.31,3.66 -0.63,5.46 -0.53,3.12 -1.53,6.26 -3.15,8.98 -2.04,-4.1 -6.01,-7.06 -10.72,-7.71 -0.09,-0.22 -0.19,-0.43 -0.29,-0.65 -0.21,-0.44 -0.43,-0.87 -0.67,-1.3 2.1,-3.51 5.07,-6.37 8.71,-8.34 l 7.07,-3.84 5.33,6.03 c 3.25,3.67 5.21,8.19 5.66,13.07 0.4,4.33 -0.42,8.6 -2.37,12.44 -0.59,-0.58 -1.21,-1.13 -1.87,-1.65 L 401.6,74.22 399.36,76 c -0.1,-0.63 -0.25,-1.25 -0.43,-1.85 0.95,-1.74 1.65,-3.61 2.1,-5.52 0.88,-3.64 1,-7.37 0.82,-11.07 z m -4.79,20.7 c 0,6.41 -5.21,11.62 -11.62,11.62 -6.41,0 -11.62,-5.21 -11.62,-11.62 0,-6.41 5.21,-11.62 11.62,-11.62 6.41,0 11.62,5.21 11.62,11.62 z m 5.49,-30.19 -8.24,4.47 c -3.07,1.66 -5.69,3.92 -7.77,6.63 l -1.1,-14.79 -1.1,14.79 c -2.08,-2.71 -4.71,-4.97 -7.77,-6.63 l -8.24,-4.47 -1.85,2.09 c 0.17,-1.22 0.42,-2.44 0.75,-3.65 1.66,-6.06 5.13,-11.34 10.05,-15.25 l 8.16,-6.49 8.16,6.49 c 4.92,3.91 8.4,9.19 10.05,15.25 0.33,1.21 0.58,2.43 0.75,3.65 z m -33.86,2.1 7.07,3.84 c 4.24,2.3 7.59,5.81 9.69,10.15 0,0 -0.01,0 -0.02,0 -5.64,0 -10.52,3.33 -12.77,8.13 -1.72,-2.79 -2.77,-6.03 -3.32,-9.27 -0.32,-1.8 -0.51,-3.62 -0.63,-5.46 -0.32,5.73 0.27,11.93 3.13,16.97 -0.14,0.5 -0.25,1.01 -0.33,1.53 l -2.3,-1.83 -7.34,5.83 c -0.64,0.51 -1.24,1.05 -1.82,1.61 -1.93,-3.83 -2.74,-8.08 -2.35,-12.4 0.45,-4.88 2.41,-9.4 5.66,-13.07 z m -5.78,31.19 6.3,-5.01 2.13,1.69 c 0,0.07 0,0.14 0,0.22 0,7.03 5.17,12.88 11.91,13.93 0.71,0.11 1.45,0.17 2.19,0.17 0.66,0 1.31,-0.05 1.95,-0.14 6.86,-0.95 12.15,-6.85 12.15,-13.97 0,-0.09 0,-0.18 0,-0.27 l 2.06,-1.64 6.3,5.01 c 3.84,3.05 6.55,7.16 7.84,11.89 0.14,0.5 0.25,1 0.36,1.51 l -5.54,3 c -3.65,1.98 -6.69,4.87 -8.87,8.35 l -0.31,-13.82 -1.95,15.3 c -1.53,-2.13 -3.35,-4.04 -5.43,-5.69 l -6.61,-5.26 -1.96,-1.56 -2.13,1.69 -6.45,5.13 c -2.21,1.76 -4.13,3.81 -5.72,6.11 l -2,-15.72 -0.29,13.02 c -2.13,-3.13 -4.99,-5.73 -8.35,-7.55 l -5.74,-3.12 c 0.1,-0.47 0.2,-0.93 0.33,-1.4 1.29,-4.73 4,-8.84 7.84,-11.89 z m 65.19,-23.54 c 1.59,5.44 2.03,11.23 1.31,16.86 -0.42,-0.56 -0.86,-1.11 -1.32,-1.64 l -5.18,-5.85 c 1.58,-4.47 1.7,-8.71 1.36,-13.43 -0.42,4.55 -1.32,9.25 -3.53,13.23 l -5.83,3.17 c -0.02,-0.35 -0.04,-0.69 -0.07,-1.04 -0.46,-4.95 -2.36,-9.55 -5.51,-13.37 1.49,-3.31 3.74,-6.21 6.63,-8.51 l 4.69,-3.73 c 3.39,4.22 5.95,9.12 7.47,14.31 z m -9.17,-16.3 c 0.22,0.24 0.43,0.48 0.64,0.72 l -4.66,3.7 c -0.34,0.27 -0.67,0.55 -0.99,0.83 -1.33,-4.54 -3.7,-8.04 -6.73,-11.66 2.42,4.12 4.52,8.68 4.93,13.43 -1.61,1.75 -2.95,3.7 -3.99,5.83 l -1.84,-2.07 c -0.13,-2.08 -0.48,-4.16 -1.04,-6.21 -1.58,-5.77 -4.72,-10.87 -9.13,-14.84 0.23,-0.68 0.49,-1.36 0.78,-2.03 l 3.16,-7.17 18.87,19.48 z m -33.49,-34.57 13.37,13.8 -3.44,7.79 c -0.22,0.51 -0.43,1.02 -0.62,1.54 -0.04,-0.03 -0.08,-0.07 -0.13,-0.11 l -9.19,-7.3 -9.19,7.3 c -0.32,0.25 -0.63,0.51 -0.94,0.78 -0.25,-0.75 -0.53,-1.48 -0.85,-2.21 l -3.11,-7.05 14.08,-14.54 z m -33.49,34.57 18.15,-18.74 2.84,6.43 c 0.4,0.91 0.74,1.84 1.02,2.78 -3.99,3.86 -6.85,8.67 -8.33,14.09 -0.56,2.05 -0.91,4.13 -1.04,6.21 l -2.18,2.47 c -1.1,-2.35 -2.56,-4.5 -4.34,-6.4 0.44,-4.69 2.52,-9.19 4.91,-13.26 -3,3.59 -5.36,7.06 -6.69,11.54 -0.28,-0.24 -0.56,-0.48 -0.85,-0.71 l -4.34,-3.45 c 0.28,-0.33 0.56,-0.65 0.85,-0.97 z m -9.17,16.3 c 1.48,-5.09 3.97,-9.89 7.26,-14.05 l 4.36,3.47 c 3.01,2.4 5.33,5.45 6.81,8.94 -2.94,3.73 -4.73,8.17 -5.17,12.94 -0.04,0.41 -0.06,0.83 -0.08,1.24 l -6.01,-3.26 c -2.25,-4 -3.17,-8.75 -3.59,-13.34 -0.34,4.68 -0.22,8.89 1.32,13.32 l -5.28,5.96 c -0.35,0.39 -0.68,0.8 -1,1.21 -0.65,-5.49 -0.18,-11.13 1.36,-16.43 z m 2.26,37.49 -3.29,-18.76 c 0.56,-0.85 1.19,-1.66 1.87,-2.44 l 5.15,-5.82 6.83,3.71 c 0.12,0.06 0.23,0.13 0.35,0.2 0.12,3.75 1.09,7.4 2.88,10.74 -2.52,2.82 -4.35,6.17 -5.37,9.88 -0.09,0.32 -0.17,0.64 -0.24,0.97 -2.29,-4.02 -3.21,-8.8 -3.63,-13.41 -0.37,5.02 -0.21,9.5 1.69,14.3 l -4.96,5.6 c 0,0 -0.04,0.05 -0.06,0.07 -0.51,-1.64 -0.92,-3.32 -1.22,-5.03 z m 0.12,46.02 c -2.55,-4.06 -3.75,-8.8 -3.41,-13.67 0.38,-5.37 2.6,-10.32 6.29,-14.15 2.33,3.45 5.14,6.58 8.36,9.29 0.81,0.68 1.65,1.33 2.5,1.95 -7.5,4.86 -11.75,12.22 -13.74,16.59 z m 51.97,2.13 h -23.38 l -2.25,-12.31 c 0.97,0.31 1.94,0.6 2.93,0.84 l 1.93,9.89 1.78,-9.12 c 1.85,0.3 3.73,0.49 5.62,0.56 l 1.67,8.55 1.67,-8.55 c 1.89,-0.07 3.77,-0.26 5.62,-0.57 l 1.78,9.12 1.93,-9.89 c 0.99,-0.25 1.96,-0.53 2.93,-0.84 l -2.25,12.31 z m 13.14,-22.75 -0.76,0.67 v 0 c -0.1,0.08 -0.2,0.17 -0.3,0.25 0,0 0,0 0,0 -4.08,2.9 -8.64,5.02 -13.45,6.27 -2.96,0.77 -6.01,1.21 -9.1,1.31 l -0.1,-1.31 -1.12,-15.07 -1.12,15.07 -0.1,1.31 c -3.09,-0.09 -6.14,-0.53 -9.1,-1.31 -4.81,-1.25 -9.37,-3.37 -13.45,-6.27 0,0 0,0 0,0 -4.24,-3.31 -6.41,-8.57 -7.3,-13.78 -0.32,-1.8 -0.51,-3.62 -0.63,-5.46 -0.26,4.56 0.07,9.4 1.64,13.73 -3.66,-3.95 -6.51,-8.59 -8.39,-13.62 0.25,-0.32 0.51,-0.63 0.78,-0.94 l 5.06,-5.72 6.72,3.64 c 4.51,2.45 8.04,6.43 9.93,11.19 l 0.9,2.36 1.02,-1.8 c 1.7,-3.01 3.94,-5.63 6.65,-7.79 l 7.36,-5.85 7.36,5.85 c 2.77,2.21 5.05,4.89 6.76,7.99 l 1.03,1.86 0.85,-2.31 c 1.87,-4.91 5.44,-8.99 10.05,-11.5 l 6.72,-3.64 5.06,5.72 c 0.23,0.26 0.46,0.53 0.67,0.8 -1.87,5.08 -4.73,9.75 -8.41,13.73 0.32,-0.86 0.58,-1.74 0.79,-2.63 0.88,-3.64 1,-7.37 0.82,-11.07 -0.12,1.84 -0.31,3.66 -0.63,5.46 -0.05,0.31 -0.11,0.62 -0.17,0.93 -0.02,0.12 -0.05,0.23 -0.07,0.35 -0.04,0.19 -0.08,0.39 -0.13,0.58 -0.03,0.15 -0.07,0.29 -0.11,0.44 -0.04,0.16 -0.08,0.32 -0.12,0.48 -0.04,0.17 -0.09,0.33 -0.14,0.5 -0.04,0.14 -0.08,0.27 -0.12,0.41 -0.05,0.18 -0.11,0.36 -0.17,0.54 -0.04,0.11 -0.07,0.23 -0.11,0.34 -0.07,0.2 -0.13,0.39 -0.21,0.58 -0.03,0.09 -0.07,0.19 -0.1,0.28 -0.08,0.21 -0.16,0.42 -0.25,0.63 -0.03,0.07 -0.06,0.14 -0.09,0.2 -0.1,0.23 -0.19,0.46 -0.3,0.68 -0.02,0.03 -0.03,0.07 -0.05,0.1 -1.01,2.18 -2.36,4.18 -4.11,5.82 z m 16.02,20.62 c -2.02,-4.42 -6.35,-11.92 -14.04,-16.78 0.76,-0.56 1.5,-1.14 2.23,-1.75 3.33,-2.8 6.22,-6.05 8.59,-9.63 3.9,3.88 6.24,8.97 6.63,14.5 0.34,4.87 -0.86,9.61 -3.41,13.67 z"
         id="path23"
         style="fill:#044350;stroke-width:0px" />
      <path
         class="cls-2"
         d="m 389.47,150.13 c -0.27,4.67 -4.02,8.38 -4.02,8.38 0,0 -3.75,-3.71 -4.02,-8.38 h -8.99 l 4.33,10.23 c 0.46,1.08 1.98,1.08 2.44,0 l 1.44,-3.39 3.57,8.43 c 0.46,1.08 1.98,1.08 2.44,0 l 3.57,-8.43 1.44,3.39 c 0.46,1.08 1.98,1.08 2.44,0 l 4.33,-10.23 h -8.99 z"
         id="path24"
         style="fill:#044350;stroke-width:0px" />
      <path
         class="cls-2"
         d="m 447.47,10.15 c -0.3,-1.32 -3.6,-1.79 -8.31,-1.41 -1.68,-2.61 -4.62,-4.35 -7.95,-4.35 -4.82,0 -8.8,3.62 -9.38,8.29 -4.41,1.69 -7.18,3.54 -6.88,4.86 0.3,1.32 3.6,1.79 8.31,1.41 1.68,2.61 4.62,4.35 7.95,4.35 4.82,0 8.8,-3.62 9.38,-8.29 4.41,-1.69 7.18,-3.54 6.88,-4.86 z m -29.36,6.34 c -0.2,-0.86 1.22,-2 3.65,-3.12 0,0.16 -0.01,0.32 -0.01,0.48 0,1.38 0.3,2.7 0.84,3.88 -2.58,0.01 -4.28,-0.4 -4.47,-1.24 z m 13.1,-10.45 c 2.44,0 4.62,1.13 6.05,2.89 -2.12,0.25 -4.46,0.65 -6.9,1.21 -2.44,0.55 -4.72,1.2 -6.74,1.89 0.82,-3.43 3.91,-5.98 7.59,-5.98 z m 0,15.61 c -2.44,0 -4.62,-1.13 -6.05,-2.89 2.12,-0.25 4.46,-0.65 6.9,-1.21 2.44,-0.55 4.72,-1.2 6.74,-1.89 -0.82,3.43 -3.91,5.98 -7.59,5.98 z m 7.78,-7.28 c -2,0.78 -4.44,1.53 -7.11,2.13 -2.73,0.62 -5.31,1 -7.48,1.15 -0.63,-1.13 -1,-2.43 -1,-3.81 0,-0.41 0.03,-0.82 0.09,-1.21 1.98,-0.77 4.4,-1.51 7.03,-2.1 2.57,-0.58 5,-0.96 7.09,-1.12 0.88,1.26 1.39,2.79 1.39,4.44 0,0.18 0,0.35 -0.02,0.52 z m 1.67,-0.71 c -0.03,-1.57 -0.45,-3.05 -1.16,-4.35 2.76,-0.05 4.6,0.36 4.8,1.24 0.19,0.86 -1.22,1.99 -3.64,3.11 z"
         id="path25"
         style="fill:#044350;stroke-width:0px" />
      <path
         class="cls-2"
         d="m 410.81,7.18 0.66,3.9 0.66,-3.9 c 0.04,-0.24 0.23,-0.43 0.47,-0.47 l 3.9,-0.66 -3.9,-0.66 c -0.24,-0.04 -0.43,-0.23 -0.47,-0.47 l -0.66,-3.9 -0.66,3.9 c -0.04,0.24 -0.23,0.43 -0.47,0.47 l -3.9,0.66 3.9,0.66 c 0.24,0.04 0.43,0.23 0.47,0.47 z"
         id="path26"
         style="fill:#044350;stroke-width:0px" />
      <path
         class="cls-2"
         d="m 452.08,22.64 c -0.24,-0.04 -0.43,-0.23 -0.47,-0.47 l -0.66,-3.9 -0.66,3.9 c -0.04,0.24 -0.23,0.43 -0.47,0.47 l -3.9,0.66 3.9,0.66 c 0.24,0.04 0.43,0.23 0.47,0.47 l 0.66,3.9 0.66,-3.9 c 0.04,-0.24 0.23,-0.43 0.47,-0.47 l 3.9,-0.66 z"
         id="path27"
         style="fill:#044350;stroke-width:0px" />
      <path
         class="cls-2"
         d="m 382.22,78.66 3.47,-10.07 h 4.24 c -1.36,-0.63 -2.87,-0.98 -4.46,-0.98 -5.89,0 -10.66,4.77 -10.66,10.66 0,4.21 2.44,7.85 5.98,9.58 l 3.96,-9.19 h -2.54 z"
         id="path28"
         style="fill:#044350;stroke-width:0px" />
      <path
         class="cls-2"
         d="m 390.08,68.65 -3.98,9.22 h 3.27 l -8.54,9.98 c 1.4,0.68 2.98,1.06 4.64,1.06 5.89,0 10.66,-4.77 10.66,-10.66 0,-4.24 -2.47,-7.9 -6.05,-9.61 z"
         id="path29"
         style="fill:#044350;stroke-width:0px" />
    </g>
  </g>
</svg>
