<?xml version="1.0" encoding="UTF-8" standalone="no"?>
<!-- Created with Inkscape (http://www.inkscape.org/) -->

<svg
   width="80.234894mm"
   height="43.973751mm"
   viewBox="0 0 80.234894 43.973751"
   version="1.1"
   id="svg1"
   inkscape:version="1.4 (e7c3feb1, 2024-10-09)"
   sodipodi:docname="textLogo.svg"
   xmlns:inkscape="http://www.inkscape.org/namespaces/inkscape"
   xmlns:sodipodi="http://sodipodi.sourceforge.net/DTD/sodipodi-0.dtd"
   xmlns="http://www.w3.org/2000/svg"
   xmlns:svg="http://www.w3.org/2000/svg">
  <sodipodi:namedview
     id="namedview1"
     pagecolor="#ffffff"
     bordercolor="#000000"
     borderopacity="0.25"
     inkscape:showpageshadow="2"
     inkscape:pageopacity="0.0"
     inkscape:pagecheckerboard="0"
     inkscape:deskcolor="#d1d1d1"
     inkscape:document-units="mm"
     inkscape:zoom="0.74463538"
     inkscape:cx="443.84139"
     inkscape:cy="96.691619"
     inkscape:window-width="1544"
     inkscape:window-height="873"
     inkscape:window-x="0"
     inkscape:window-y="38"
     inkscape:window-maximized="0"
     inkscape:current-layer="layer1" />
  <defs
     id="defs1" />
  <g
     inkscape:label="Layer 1"
     inkscape:groupmode="layer"
     id="layer1"
     transform="translate(-66.08415,-127.27602)">
    <g
       id="g23"
       transform="matrix(0.26458333,0,0,0.26458333,66.08415,127.27602)">
      <g
         id="g6">
        <!-- Panimo -->
        <path
           class="cls-1"
           d="m 9.89,1 h 20.47 c 13.83,0 18.93,8.03 18.93,17.77 0,13.75 -10.28,21.79 -25.26,21.79 H 19.32 L 16.38,57.09 H 0 Z m 23.02,18.7 c 0,-3.4 -1.93,-5.72 -5.25,-5.72 h -3.71 l -2.32,13.37 h 3.63 c 4.79,0 7.65,-3.32 7.65,-7.65 z"
           id="path1"
           style="fill:#044350;stroke-width:0px" />
        <path
           class="cls-1"
           d="m 66.75,1 h 20.78 l 6.88,56.09 H 78.26 L 77.18,46.58 H 61.26 L 56.39,57.09 H 39.62 Z m 9.43,32.76 -1.47,-17.69 -7.88,17.69 z"
           id="path2"
           style="fill:#044350;stroke-width:0px" />
        <path
           class="cls-1"
           d="m 108.01,1 h 13.21 L 136.29,31.9 141.7,1 h 15.68 l -9.89,56.09 h -13.37 l -14.99,-30.9 -5.41,30.9 H 98.11 Z"
           id="path3"
           style="fill:#044350;stroke-width:0px" />
        <path
           class="cls-1"
           d="m 165.1,1 h 16.46 l -9.89,56.09 h -16.46 z"
           id="path4"
           style="fill:#044350;stroke-width:0px" />
        <path
           class="cls-1"
           d="m 189.29,1 h 14.29 L 212.54,25.26 230.16,1 h 14.29 l -9.89,56.09 h -15.84 l 5.41,-30.29 -15.61,21.01 -7.96,-20.78 -5.33,30.05 h -15.84 z"
           id="path5"
           style="fill:#044350;stroke-width:0px" />
        <path
           class="cls-1"
           d="m 245.3,32.14 c 0,-8.42 3.24,-16.61 9.04,-22.79 C 259.9,3.48 267.71,0 276.36,0 c 14.29,0 26.89,9.19 26.89,25.96 0,8.42 -3.17,16.61 -9.04,22.79 -5.56,5.87 -13.29,9.35 -22.02,9.35 -14.22,0 -26.89,-9.19 -26.89,-25.96 z m 37.08,6.34 c 2.32,-2.86 3.86,-6.88 3.86,-11.43 0,-7.65 -4.4,-12.13 -10.51,-12.13 -4.25,0 -7.57,2.24 -9.5,4.71 -2.39,2.86 -3.86,6.88 -3.86,11.43 0,7.65 4.33,12.13 10.43,12.13 4.33,0 7.57,-2.24 9.58,-4.71 z"
           id="path6"
           style="fill:#044350;stroke-width:0px" />
      </g>
      <g
         id="g11">
        <!-- Valta -->
        <path
           class="cls-1"
           d="m 0,65.27 h 23.11 l 4.14,53.12 22.16,-53.12 H 73.9 L 37.43,142.25 H 9.22 Z"
           id="path7"
           style="fill:#044350;stroke-width:0px" />
        <path
           class="cls-1"
           d="m 91.29,65.27 h 28.52 l 9.44,76.98 h -22.16 l -1.48,-14.42 H 83.77 l -6.68,14.42 H 54.08 L 91.3,65.27 Z m 12.94,44.95 -2.01,-24.28 -10.81,24.28 h 12.83 z"
           id="path8"
           style="fill:#044350;stroke-width:0px" />
        <path
           class="cls-1"
           d="m 147.91,65.27 h 22.58 l -10.07,57.36 h 26.19 l -3.5,19.62 h -48.77 z"
           id="path9"
           style="fill:#044350;stroke-width:0px" />
        <path
           class="cls-1"
           d="m 202.73,84.67 h -19.19 l 3.39,-19.4 h 60.44 l -3.39,19.4 h -18.77 l -10.28,57.57 h -22.37 l 10.18,-57.57 z"
           id="path10"
           style="fill:#044350;stroke-width:0px" />
        <path
           class="cls-1"
           d="m 265.29,65.27 h 28.52 l 9.44,76.98 h -22.16 l -1.48,-14.42 h -21.84 l -6.68,14.42 H 228.08 L 265.3,65.27 Z m 12.93,44.95 -2.01,-24.28 -10.81,24.28 h 12.83 z"
           id="path11"
           style="fill:#044350;stroke-width:0px" />
      </g>
      <g
         id="g22">
        <path
           class="cls-1"
           d="m 133.52,149.7 h 4.76 l -1.07,6.05 h 4.69 l 1.07,-6.05 h 4.74 l -2.86,16.22 h -4.74 l 1.07,-6.14 h -4.69 l -1.07,6.14 h -4.76 z"
           id="path12"
           style="fill:#044350;stroke-width:0px" />
        <path
           class="cls-1"
           d="m 147.95,158.7 c 0,-2.43 0.94,-4.8 2.61,-6.59 1.61,-1.7 3.86,-2.7 6.37,-2.7 4.13,0 7.77,2.66 7.77,7.5 0,2.43 -0.92,4.8 -2.61,6.59 -1.61,1.7 -3.84,2.7 -6.37,2.7 -4.11,0 -7.77,-2.66 -7.77,-7.5 z m 10.72,1.83 c 0.67,-0.83 1.12,-1.99 1.12,-3.31 0,-2.21 -1.27,-3.51 -3.04,-3.51 -1.23,0 -2.19,0.65 -2.75,1.36 -0.69,0.83 -1.12,1.99 -1.12,3.31 0,2.21 1.25,3.51 3.02,3.51 1.25,0 2.19,-0.65 2.77,-1.36 z"
           id="path13"
           style="fill:#044350;stroke-width:0px" />
        <path
           class="cls-1"
           d="m 167.81,149.7 h 4.13 l 2.59,7.01 5.09,-7.01 h 4.13 l -2.86,16.22 h -4.58 l 1.56,-8.76 -4.51,6.08 -2.3,-6.01 -1.54,8.69 h -4.58 l 2.86,-16.22 z"
           id="path14"
           style="fill:#044350;stroke-width:0px" />
        <path
           class="cls-1"
           d="m 186.01,149.7 h 10.23 l -0.74,4.09 h -5.7 l -0.4,2.21 h 4.07 l -0.6,3.48 h -4.07 l -0.42,2.35 h 5.7 l -0.71,4.09 h -10.21 l 2.86,-16.22 z"
           id="path15"
           style="fill:#044350;stroke-width:0px" />
        <path
           class="cls-1"
           d="m 201.91,149.7 h 5.85 c 3.8,0 5.18,2.12 5.18,4.38 0,1.81 -0.94,3.04 -2.39,3.8 0.92,0.71 1.47,1.74 1.47,3.06 0,3.08 -2.93,4.98 -6.77,4.98 h -6.21 l 2.86,-16.22 z m 5.63,10.94 c 0,-0.78 -0.47,-1.34 -1.36,-1.34 h -1.41 l -0.54,3.04 h 1.43 c 1.12,0 1.88,-0.65 1.88,-1.7 z m 0.78,-6.09 c 0,-0.71 -0.45,-1.3 -1.3,-1.3 h -1.18 l -0.54,2.99 h 1.18 c 1.12,0 1.83,-0.69 1.83,-1.7 z"
           id="path16"
           style="fill:#044350;stroke-width:0px" />
        <path
           class="cls-1"
           d="m 215.89,149.7 h 6.16 c 3.89,0 5.25,2.41 5.25,4.69 0,2.57 -1.72,4.49 -4.07,5.36 l 2.66,6.16 h -4.8 l -2.3,-5.67 h -0.2 l -1.01,5.67 h -4.56 l 2.86,-16.22 z m 6.71,5.14 c 0,-0.87 -0.56,-1.43 -1.38,-1.43 h -1.41 l -0.58,3.24 h 1.41 c 1.07,0 1.97,-0.71 1.97,-1.81 z"
           id="path17"
           style="fill:#044350;stroke-width:0px" />
        <path
           class="cls-1"
           d="m 230.08,149.7 h 10.23 l -0.74,4.09 h -5.7 l -0.4,2.21 h 4.07 l -0.6,3.48 h -4.07 l -0.42,2.35 h 5.7 l -0.71,4.09 h -10.21 l 2.86,-16.22 z"
           id="path18"
           style="fill:#044350;stroke-width:0px" />
        <path
           class="cls-1"
           d="m 241.27,149.7 h 4.56 l -0.07,10.63 4.49,-10.63 h 3.19 l 0.71,10.94 3.84,-10.94 h 4.69 l -6.34,16.22 h -5.27 l -0.63,-8.06 -3.53,8.06 h -5.14 l -0.51,-16.22 z"
           id="path19"
           style="fill:#044350;stroke-width:0px" />
        <path
           class="cls-1"
           d="m 263.96,149.7 h 10.23 l -0.74,4.09 h -5.7 l -0.4,2.21 h 4.07 l -0.6,3.48 h -4.07 l -0.42,2.35 h 5.7 l -0.71,4.09 h -10.21 l 2.86,-16.22 z"
           id="path20"
           style="fill:#044350;stroke-width:0px" />
        <path
           class="cls-1"
           d="m 276.13,149.7 h 6.16 c 3.89,0 5.25,2.41 5.25,4.69 0,2.57 -1.72,4.49 -4.07,5.36 l 2.66,6.16 h -4.8 l -2.3,-5.67 h -0.2 l -1.01,5.67 h -4.56 l 2.86,-16.22 z m 6.7,5.14 c 0,-0.87 -0.56,-1.43 -1.38,-1.43 h -1.41 l -0.58,3.24 h 1.41 c 1.07,0 1.97,-0.71 1.97,-1.81 z"
           id="path21"
           style="fill:#044350;stroke-width:0px" />
        <path
           class="cls-1"
           d="m 291.01,160.42 -3.04,-10.72 h 4.71 l 1.47,6.48 3.93,-6.48 h 5.09 l -7.5,11.15 -0.89,5.07 h -4.71 l 0.94,-5.49 z"
           id="path22"
           style="fill:#044350;stroke-width:0px" />
      </g>
    </g>
    <polygon
       class="cls-1"
       points="133.36,155.75 132.65,159.77 0,159.77 0.71,155.75 "
       id="polygon23"
       style="fill:#044350;stroke-width:0px"
       transform="matrix(0.26458333,0,0,0.26458333,66.08415,127.27602)" />
  </g>
</svg>
